<svg width="198" height="135" viewBox="0 0 198 135" fill="none" xmlns="http://www.w3.org/2000/svg">
<path d="M197.235 63.0604C195.903 61.5957 177.802 38.984 174.586 35.1391C171.37 31.2941 169.854 31.9807 167.878 32.3011C165.903 32.5758 142.977 36.4207 140.313 36.8784C137.648 37.3361 135.994 38.3889 137.602 40.6776C139.072 42.6916 154.141 64.0217 157.449 68.6905L97.4945 83.0173L49.8984 3.60164C48.0147 0.8095 47.6013 -0.1975 43.2827 0.0313635C38.9641 0.214454 5.8857 2.96082 3.54264 3.14391C1.15364 3.327 -1.41912 4.37977 0.923933 9.91827C3.31293 15.4568 40.8477 96.1083 41.9044 98.4427C42.9611 100.777 45.6717 104.576 52.0577 103.066C58.5815 101.51 81.231 95.6048 93.5894 92.4007C100.113 104.21 113.482 128.103 115.917 131.536C119.225 136.114 121.476 135.336 126.53 133.825C130.481 132.635 188.276 111.946 190.895 110.847C193.514 109.794 195.122 109.016 193.33 106.407C192.044 104.485 176.791 84.1617 168.797 73.4966C174.264 72.0319 193.698 66.9053 195.811 66.3103C198.2 65.7152 198.567 64.5252 197.235 63.0604ZM88.2602 85.2602C87.5251 85.3975 53.9872 93.4077 52.1955 93.8197C50.4037 94.2317 50.4037 94.0028 50.22 93.4077C50.0362 92.8127 10.2962 11.1999 9.74484 10.1929C9.19354 9.18591 9.23948 8.362 9.74484 8.362C10.2502 8.362 41.445 5.56986 42.5476 5.52409C43.6502 5.47832 43.5124 5.70718 43.9259 6.39377C43.9259 6.39377 87.8926 82.0103 88.6736 83.3377C89.4546 84.7109 88.9952 85.1229 88.2602 85.2602ZM182.947 102.928C183.498 103.752 184.004 104.302 182.35 104.897C180.65 105.492 125.519 124.03 124.463 124.487C123.406 124.945 122.533 125.082 121.155 123.114C119.777 121.146 101.859 90.2037 101.859 90.2037L160.298 75.0529C161.768 74.5952 162.227 74.2747 163.146 75.7395C164.019 77.25 182.396 102.105 182.947 102.928ZM186.668 61.5957C185.336 61.8703 163.881 67.18 163.881 67.18L146.331 43.1951C145.826 42.5085 145.412 41.8219 146.653 41.6388C147.893 41.4557 167.832 37.8854 168.705 37.7023C169.624 37.5192 170.405 37.2446 171.507 38.7551C172.61 40.2656 187.771 59.3986 188.368 60.131C188.966 60.8633 188.001 61.3211 186.668 61.5957Z" fill="#FB503B"/>
</svg>
