<svg width="214" height="198" viewBox="0 0 214 198" fill="none" xmlns="http://www.w3.org/2000/svg">
<g id="Group">
<path id="Vector" d="M211.909 39.421L171.951 2.6737C169.318 0.254599 164.595 0.254599 161.962 2.6737L127.02 34.7748L117.031 43.9904L101.984 57.7371C100.646 58.9658 99.8939 60.5786 99.8939 62.3065C99.8939 64.0344 100.646 65.6856 101.984 66.8759L141.983 103.585C143.362 104.852 145.202 105.505 146.957 105.505C148.754 105.505 150.593 104.852 151.931 103.585L211.909 48.5982C213.246 47.3695 213.999 45.7568 213.999 44.0288C213.999 42.3009 213.246 40.6498 211.909 39.421Z" fill="#D7D7D7"/>
<path id="Vector_2" d="M111.973 131.232L72.0157 94.4845C70.6782 93.2557 68.9227 92.5645 67.0419 92.5645C65.161 92.5645 63.3637 93.2557 62.0681 94.4845L57.0942 99.0539L47.1048 108.27L37.0736 117.447L27.0842 126.624L17.0948 135.801L2.08983 149.548C0.75234 150.777 0 152.389 0 154.117C0 155.845 0.75234 157.496 2.08983 158.687L42.0892 195.434C43.4267 196.663 45.1822 197.354 47.063 197.354C48.9439 197.354 50.7412 196.663 52.0368 195.434L106.958 144.94L111.931 140.371C114.732 137.836 114.732 133.766 111.973 131.232Z" fill="#EBEBEB"/>
<g id="Group_2">
<path id="Vector_3" d="M146.957 62.3449C145.578 63.6121 143.739 64.2648 141.983 64.2648C140.144 64.2648 138.347 63.6121 137.009 62.3449L117.031 44.0289L127.02 34.8132L146.999 53.2061C149.716 55.702 149.716 59.8106 146.957 62.3449Z" fill="#454545"/>
<path id="Vector_4" d="M166.936 44.0289C165.557 45.296 163.718 45.872 161.962 45.872C160.165 45.872 158.326 45.2576 156.988 44.0289L137.009 25.636L146.999 16.4588L166.978 34.8133C169.736 37.3476 169.736 41.4562 166.936 44.0289Z" fill="#454545"/>
</g>
<g id="Group_3">
<path id="Vector_5" d="M47.063 154.156C45.6419 155.423 43.8446 156.076 42.0056 156.076C40.2083 156.076 38.4111 155.423 37.0318 154.156L17.053 135.801L27.0424 126.624L47.063 144.978C49.7798 147.513 49.7798 151.583 47.063 154.156Z" fill="#636363"/>
<path id="Vector_6" d="M67.0418 135.801C65.6207 137.068 63.8234 137.721 62.068 137.721C60.2289 137.721 58.4316 137.068 57.0942 135.801L37.0735 117.447L47.1047 108.269L67.0836 126.624C69.7585 129.12 69.7585 133.267 67.0418 135.801Z" fill="#636363"/>
</g>
<path id="Vector_7" d="M77.0312 25.636C74.398 23.2169 69.675 23.2169 67.0418 25.636L27.0424 62.3833C25.7049 63.612 24.9526 65.2248 24.9526 66.9527C24.9526 68.6806 25.7049 70.3318 27.0424 71.5221L141.983 177.079L191.93 131.193L77.0312 25.636Z" fill="#FA5D7C"/>
<path id="Vector_8" d="M107.041 145.017L141.983 177.079L191.888 131.232L107.041 53.2061V145.017Z" fill="#FF708C"/>
<path id="Vector_9" d="M166.936 160.645C165.138 160.645 163.299 159.992 161.92 158.725L47.0211 53.1677C44.2625 50.6334 44.2625 46.5247 47.0211 43.9904C49.7797 41.4561 54.2519 41.4561 57.0105 43.9904L171.91 149.548C174.668 152.082 174.668 156.191 171.91 158.725C170.572 160.031 168.775 160.645 166.936 160.645Z" fill="#D1D1D1"/>
<path id="Vector_10" d="M32.0162 76.1299L7.06358 53.2061C-1.21216 45.5648 -1.17037 33.2005 7.06358 25.636L27.0424 7.28152C35.2763 -0.282969 48.7348 -0.282969 57.0524 7.28152L82.0468 30.2438L32.0162 76.1299Z" fill="#636363"/>
<path id="Vector_11" d="M107.041 108.308L161.962 158.763C163.341 160.031 165.139 160.683 166.978 160.683C168.817 160.683 170.614 160.031 171.993 158.763C174.752 156.229 174.752 152.12 171.993 149.586L107.041 89.9534V108.308Z" fill="#EEEEEE"/>
<path id="Vector_12" d="M211.909 195.472C210.07 197.162 207.395 197.853 204.72 197.047L144.742 178.654C143.655 178.347 142.735 177.847 141.983 177.079L191.93 131.193C192.724 131.884 193.309 132.768 193.644 133.728L213.664 188.829C214.459 191.133 213.832 193.744 211.909 195.472Z" fill="#C9C9C9"/>
<path id="Vector_13" d="M206.434 169.131L183.237 190.442L204.72 197.047C207.395 197.853 210.112 197.162 211.909 195.472C213.79 193.744 214.459 191.133 213.623 188.868L206.434 169.131Z" fill="#454545"/>
</g>
</svg>
