<svg width="46" height="41" viewBox="0 0 46 41" fill="none" xmlns="http://www.w3.org/2000/svg">
<path d="M44.1418 18.1122H1.85815C0.831953 18.1122 0 19.1812 0 20.5C0 21.8188 0.831953 22.8878 1.85815 22.8878H44.1418C45.1681 22.8878 46 21.8188 46 20.5C46 19.1813 45.1681 18.1122 44.1418 18.1122Z" fill="black"/>
<path d="M44.1418 3.45289e-07H1.85815C0.831953 3.45289e-07 0 1.0691 0 2.3878C0 3.70651 0.831953 4.77561 1.85815 4.77561H44.1418C45.1681 4.77561 46 3.70651 46 2.3878C46 1.0691 45.1681 3.45289e-07 44.1418 3.45289e-07Z" fill="black"/>
<path d="M44.1418 36.2244H1.85815C0.831953 36.2244 0 37.2934 0 38.6122C0 39.9311 0.831953 41 1.85815 41H44.1418C45.1681 41 46 39.9311 46 38.6122C46 37.2934 45.1681 36.2244 44.1418 36.2244Z" fill="black"/>
</svg>
