<svg width="169" height="60" viewBox="0 0 169 60" fill="none" xmlns="http://www.w3.org/2000/svg">
<path d="M29.6534 31.8695H28.4845V42.656H24.1165V17.2832H28.4845V28.56L29.5304 28.0697L33.96 17.2832H38.451L34.083 28.0084L32.4219 29.3567L34.206 30.7663L38.3895 42.656H33.96L29.6534 31.8695Z" fill="white"/>
<path d="M42.8191 24.0859H48.1099C49.5864 24.0859 50.6938 24.5149 51.4936 25.3117C52.1088 25.9858 52.478 26.9051 52.478 28.0696C52.478 29.9695 51.4936 31.1952 50.0171 31.7468L52.8471 36.0369H49.8325L47.3102 32.2371H45.3415V36.0369H42.8191V24.0859ZM47.9254 29.9082C49.1558 29.9082 49.8941 29.234 49.8941 28.1922C49.8941 27.089 49.1558 26.4761 47.9254 26.4761H45.403V29.9082H47.9254Z" fill="white"/>
<path d="M58.9993 23.9634H61.3371L66.3204 36.0369H63.6749L62.6291 33.3403H57.7688L56.723 36.0369H54.1391L58.9993 23.9634ZM61.6447 31.0114L60.1067 27.1503L58.5686 31.0114H61.6447Z" fill="white"/>
<path d="M68.3506 24.0859H77.1482V26.4761H70.8729V29.0502H76.4099V31.4404H70.8729V36.0982H68.3506V24.0859Z" fill="white"/>
<path d="M82.1314 26.4759H78.6247V24.0244H88.2221V26.4759H84.7153V36.0367H82.1929V26.4759H82.1314Z" fill="white"/>
<path d="M89.3294 34.3209L90.806 32.4823C91.8518 33.3403 92.9592 33.9532 94.2512 33.9532C95.297 33.9532 95.9123 33.5242 95.9123 32.7887C95.9123 32.1146 95.5431 31.8081 93.5744 31.2565C91.2366 30.6437 89.7601 29.9695 89.7601 27.5793C89.7601 25.4343 91.4212 23.9634 93.8205 23.9634C95.4816 23.9634 96.9581 24.515 98.127 25.4956L96.8351 27.4567C95.7892 26.7213 94.8049 26.2923 93.8205 26.2923C92.8362 26.2923 92.344 26.7826 92.344 27.3955C92.344 28.1922 92.8362 28.4373 94.8664 28.9889C97.2042 29.6018 98.5577 30.5211 98.5577 32.6048C98.5577 34.995 96.8351 36.2821 94.3127 36.2821C92.5286 36.2208 90.7444 35.5466 89.3294 34.3209Z" fill="white"/>
<path d="M100.957 24.0859H103.726L106.74 29.1728L109.755 24.0859H112.523V36.0369H110.001V28.2535L106.74 33.3403H106.679L103.479 28.2535V36.0369H100.957V24.0859Z" fill="white"/>
<path d="M115.599 24.0859H124.274V26.4148H118.122V28.8663H123.597V31.1952H118.122V33.708H124.397V36.0369H115.599V24.0859Z" fill="white"/>
<path d="M135.163 29.4793L133.687 25.4957H133.564L133.994 29.4793V42.656H130.487V17.3445H133.194L140.269 30.6438L141.684 34.5049H141.807L141.377 30.6438V17.2832H144.884V42.656H142.115L135.163 29.4793Z" fill="white"/>
<path d="M124.335 39.7139H34.083V42.6556H124.335V39.7139Z" fill="white"/>
<path d="M132.702 17.2832H42.4499V20.225H132.702V17.2832Z" fill="white"/>
<path d="M164.078 4.90296V55.097H4.92173V4.90296H164.078ZM169 1.4612e-08H0V60H169V1.4612e-08Z" fill="white"/>
</svg>
