<svg width="19" height="19" viewBox="0 0 19 19" fill="none" xmlns="http://www.w3.org/2000/svg">
<g id="email">
<g id="Group">
<g id="Group_2">
<path id="Vector" d="M16.2162 2.78381C14.4213 0.988934 12.0385 0 9.5 0C6.96148 0 4.57869 0.988934 2.78381 2.78381C0.988934 4.57869 0 6.96148 0 9.5C0 12.0385 0.988934 14.4213 2.78381 16.2162C4.57869 18.0111 6.96148 19 9.5 19C11.0457 19 12.5758 18.6223 13.9346 17.902C14.2773 17.7229 14.4057 17.2986 14.2266 16.9559C14.0475 16.6133 13.6232 16.4848 13.2805 16.6639C12.1242 17.2752 10.8199 17.5984 9.5 17.5984C5.03422 17.5984 1.40164 13.9658 1.40164 9.5C1.40164 5.03422 5.03422 1.40164 9.5 1.40164C13.9658 1.40164 17.5984 5.03422 17.5984 9.5C17.5984 11.0029 17.1779 11.8594 16.8236 12.3111C16.4459 12.7977 15.9398 13.0742 15.4336 13.0742C14.7289 13.0742 14.0164 12.5135 14.0164 11.2598V5.80512C14.0164 5.41967 13.701 5.1043 13.3156 5.1043C12.9301 5.1043 12.6148 5.41967 12.6148 5.80512V6.1127C11.7426 5.23668 10.5395 4.69549 9.20799 4.69549C6.55656 4.6916 4.39959 6.84857 4.39959 9.5C4.39959 12.1514 6.55656 14.3084 9.20799 14.3084C9.6791 14.3084 10.1424 14.2422 10.5863 14.1059C10.9561 13.9969 11.1664 13.6037 11.0574 13.2338C10.9484 12.8639 10.5551 12.6537 10.1852 12.7627C9.86988 12.8561 9.53893 12.9068 9.20799 12.9068C7.33135 12.9068 5.80123 11.3805 5.80123 9.5C5.80123 7.62336 7.32746 6.09324 9.20799 6.09324C11.0885 6.09324 12.6148 7.61947 12.6148 9.5V11.2598C12.6148 13.3701 14.032 14.4758 15.4336 14.4758C16.3719 14.4758 17.283 14.0008 17.9293 13.1715C18.6301 12.2721 19 11.0029 19 9.5C19 6.96148 18.0111 4.57869 16.2162 2.78381Z" fill="white"/>
</g>
</g>
</g>
</svg>
