<svg width="20" height="19" viewBox="0 0 20 19" fill="none" xmlns="http://www.w3.org/2000/svg">
<g id="message">
<g id="Group">
<g id="speech-bubble-with-text-lines">
<g id="Group_2">
<g id="Group_3">
<path id="Vector" d="M16.4935 1.05956e-09H3.50647C1.57297 1.05956e-09 0 1.55756 0 3.47203V11.4037C0 13.3182 1.57297 14.8757 3.50647 14.8757L11.7785 14.8757L15.7384 18.7966C15.8726 18.9295 16.0519 19 16.2344 19C16.3248 19 16.4159 18.9827 16.5026 18.9471C16.7647 18.8396 16.9356 18.5865 16.9356 18.3056V14.8482C18.6613 14.6324 20 13.17 20 11.4037V3.47203C20 1.55756 18.427 1.05956e-09 16.4935 1.05956e-09ZM18.5974 11.4038C18.5974 12.5525 17.6536 13.4869 16.4935 13.4869H16.2343C15.847 13.4869 15.533 13.7979 15.533 14.1813V16.6292L12.5649 13.6903C12.4334 13.56 12.2551 13.4869 12.069 13.4869H3.50647C2.34636 13.4869 1.40259 12.5525 1.40259 11.4038V3.47209C1.40259 2.32339 2.34636 1.3889 3.50647 1.3889H16.4935C17.6536 1.3889 18.5974 2.32339 18.5974 3.47209V11.4038Z" fill="white"/>
<path id="Vector_2" d="M15.1615 4.91699H4.83847C4.45119 4.91699 4.13718 5.22786 4.13718 5.61139C4.13718 5.99486 4.45119 6.30578 4.83847 6.30578H15.1615C15.5488 6.30578 15.8628 5.99486 15.8628 5.61139C15.8628 5.22786 15.5489 4.91699 15.1615 4.91699Z" fill="white"/>
<path id="Vector_3" d="M15.1615 8.80566H4.83847C4.45119 8.80566 4.13718 9.11653 4.13718 9.50006C4.13718 9.88359 4.45119 10.1945 4.83847 10.1945H15.1615C15.5488 10.1945 15.8628 9.88353 15.8628 9.50006C15.8628 9.11659 15.5489 8.80566 15.1615 8.80566Z" fill="white"/>
</g>
</g>
</g>
</g>
</g>
</svg>
