<svg width="19" height="21" viewBox="0 0 19 21" fill="none" xmlns="http://www.w3.org/2000/svg">
<g id="name">
<g id="Group">
<g id="Group_2">
<path id="Vector" d="M9.41903 11.3154C9.44216 11.3154 9.46529 11.3154 9.49304 11.3154C9.50229 11.3154 9.51154 11.3154 9.52079 11.3154C9.53467 11.3154 9.55317 11.3154 9.56705 11.3154C10.9224 11.2936 12.0186 10.8457 12.8281 9.98902C14.609 8.10168 14.3129 4.86623 14.2806 4.55747C14.1649 2.23959 12.9993 1.13067 12.0371 0.61317C11.3202 0.226134 10.4829 0.0173949 9.54855 0H9.51617C9.51154 0 9.50229 0 9.49766 0H9.46991C8.95647 0 7.94808 0.0782771 6.98132 0.595776C6.00994 1.11327 4.82578 2.2222 4.71014 4.55747C4.67776 4.86623 4.38172 8.10168 6.16259 9.98902C6.96745 10.8457 8.06372 11.2936 9.41903 11.3154ZM5.94518 4.66618C5.94518 4.65314 5.94981 4.64009 5.94981 4.63139C6.10246 1.51336 8.4569 1.1785 9.46529 1.1785H9.48379C9.49304 1.1785 9.50692 1.1785 9.52079 1.1785C10.7697 1.2046 12.8929 1.68296 13.0363 4.63139C13.0363 4.64444 13.0363 4.65749 13.0409 4.66618C13.0455 4.69662 13.3693 7.65376 11.8984 9.2106C11.3155 9.82812 10.5384 10.1325 9.51617 10.1412C9.50692 10.1412 9.50229 10.1412 9.49304 10.1412C9.48379 10.1412 9.47916 10.1412 9.46991 10.1412C8.45227 10.1325 7.67054 9.82812 7.09234 9.2106C5.62602 7.66246 5.94056 4.69228 5.94518 4.66618Z" fill="white"/>
<path id="Vector_2" d="M18.9987 16.6818C18.9987 16.6775 18.9987 16.6731 18.9987 16.6688C18.9987 16.634 18.9941 16.5992 18.9941 16.5601C18.9663 15.699 18.9062 13.6856 16.8987 13.0419C16.8848 13.0376 16.8663 13.0332 16.8524 13.0289C14.7663 12.5288 13.0316 11.3981 13.0131 11.3851C12.731 11.1981 12.3424 11.2633 12.1435 11.5286C11.9446 11.7939 12.014 12.1591 12.2962 12.3461C12.3748 12.3983 14.2158 13.6029 16.5194 14.1596C17.5971 14.5205 17.7174 15.6033 17.7498 16.5948C17.7498 16.634 17.7498 16.6688 17.7544 16.7036C17.759 17.095 17.7313 17.6994 17.6573 18.0473C16.9079 18.4474 13.9706 19.8303 9.50229 19.8303C5.05244 19.8303 2.09667 18.4431 1.34269 18.043C1.26868 17.6951 1.2363 17.0906 1.24555 16.6992C1.24555 16.6644 1.25018 16.6296 1.25018 16.5905C1.28256 15.599 1.40282 14.5162 2.48059 14.1552C4.78416 13.5986 6.62516 12.3896 6.70379 12.3418C6.98595 12.1548 7.05534 11.7895 6.85644 11.5242C6.65753 11.259 6.26898 11.1937 5.98682 11.3807C5.96832 11.3938 4.24296 12.5244 2.14755 13.0245C2.12905 13.0289 2.11517 13.0332 2.10129 13.0376C0.0937713 13.6856 0.0336384 15.699 0.0058846 16.5557C0.0058846 16.5948 0.00588449 16.6296 0.00125887 16.6644C0.00125887 16.6688 0.00125887 16.6731 0.00125887 16.6775C-0.00336676 16.9036 -0.00799229 18.0647 0.237166 18.6474C0.283422 18.7605 0.366683 18.8562 0.477698 18.9214C0.616467 19.0084 3.94229 21.0001 9.50692 21.0001C15.0715 21.0001 18.3974 19.004 18.5361 18.9214C18.6425 18.8562 18.7304 18.7605 18.7767 18.6474C19.008 18.0691 19.0033 16.908 18.9987 16.6818Z" fill="white"/>
</g>
</g>
</g>
</svg>
