<svg width="34" height="18" viewBox="0 0 34 18" fill="none" xmlns="http://www.w3.org/2000/svg">
<g id="send">
<g id="Group">
<path id="Vector" d="M33.4065 17.9852C33.4193 17.9825 33.4318 17.979 33.4444 17.9756C33.4551 17.9727 33.4659 17.9703 33.4764 17.9669C33.4887 17.963 33.5007 17.9582 33.5127 17.9537C33.5233 17.9497 33.534 17.9461 33.5445 17.9415C33.5558 17.9365 33.5668 17.9308 33.5778 17.9254C33.5885 17.92 33.5994 17.9151 33.6099 17.9091C33.6204 17.9033 33.6304 17.8966 33.6406 17.8902C33.6511 17.8837 33.6617 17.8775 33.6719 17.8703C33.6829 17.8627 33.693 17.8543 33.7035 17.8461C33.7124 17.8392 33.7214 17.8327 33.73 17.8254C33.746 17.8117 33.7611 17.7971 33.7759 17.7821C33.7785 17.7795 33.7814 17.7772 33.784 17.7744C33.7868 17.7716 33.7891 17.7684 33.7918 17.7654C33.8059 17.7502 33.8197 17.7346 33.8327 17.7182C33.8403 17.7085 33.8468 17.6984 33.8539 17.6885C33.8612 17.6782 33.8689 17.6683 33.8757 17.6576C33.8829 17.6462 33.8893 17.6344 33.896 17.6227C33.9016 17.6128 33.9076 17.6032 33.9128 17.593C33.9189 17.5812 33.924 17.569 33.9294 17.557C33.9342 17.5463 33.9394 17.5357 33.9438 17.5247C33.9485 17.5129 33.9522 17.5009 33.9564 17.4889C33.9604 17.4772 33.9647 17.4656 33.9682 17.4537C33.9717 17.4416 33.9743 17.4292 33.9772 17.4169C33.9801 17.4048 33.9834 17.3929 33.9857 17.3807C33.9884 17.3662 33.9901 17.3516 33.9921 17.337C33.9934 17.3268 33.9953 17.3166 33.9963 17.3062C33.9987 17.2807 34 17.2551 34 17.2294V0.770051C34 0.344675 33.67 2.19334e-07 33.2627 2.19334e-07H10.0363C10.0298 2.19334e-07 10.0235 0.000821043 10.017 0.00102639C10.003 0.00143708 9.98899 0.00205345 9.97503 0.00328553C9.96392 0.00420959 9.95291 0.00554461 9.9419 0.00708472C9.92931 0.00872749 9.91683 0.0106781 9.90434 0.0130396C9.89264 0.0151958 9.88104 0.0177624 9.86954 0.0205346C9.85784 0.0234095 9.84614 0.02649 9.83454 0.0299809C9.82304 0.0333691 9.81173 0.0370648 9.80052 0.0409664C9.78902 0.0450733 9.77752 0.0493862 9.76621 0.0541092C9.7555 0.0585242 9.74498 0.0630412 9.73456 0.0679696C9.72296 0.0734113 9.71145 0.0792643 9.70005 0.085322C9.69032 0.0905584 9.68078 0.0958971 9.67134 0.101544C9.65994 0.108321 9.64873 0.115508 9.63762 0.1229C9.62848 0.129061 9.61953 0.135426 9.61068 0.141895C9.60026 0.149595 9.58994 0.157604 9.57981 0.166023C9.57057 0.173723 9.56153 0.18163 9.55258 0.189741C9.54373 0.197852 9.53498 0.205963 9.52643 0.214587C9.5167 0.224341 9.50736 0.234506 9.49811 0.244773C9.49349 0.249907 9.48858 0.254425 9.48415 0.259661C9.4815 0.262742 9.47943 0.26613 9.47688 0.26921C9.46764 0.280402 9.45899 0.292106 9.45033 0.303914C9.44404 0.312538 9.43755 0.321163 9.43165 0.329993C9.42399 0.341492 9.41691 0.3533 9.40983 0.36521C9.40403 0.374964 9.39803 0.384615 9.39272 0.394574C9.38653 0.406073 9.38112 0.417881 9.37552 0.429689C9.37041 0.440469 9.3651 0.45125 9.36048 0.462236C9.35566 0.473838 9.35143 0.485851 9.3472 0.497659C9.34298 0.509261 9.33865 0.52076 9.33501 0.532465C9.33138 0.544272 9.32843 0.556285 9.32528 0.568298C9.32213 0.580618 9.31879 0.592837 9.31614 0.60526C9.31368 0.616862 9.31201 0.62867 9.31004 0.640375C9.30788 0.653722 9.30572 0.66707 9.30414 0.680417C9.30287 0.691506 9.30227 0.7028 9.30149 0.714094C9.30051 0.728468 9.29962 0.742843 9.29942 0.75732C9.29932 0.76153 9.29883 0.765637 9.29883 0.769846V5.5187C9.29883 5.94408 9.62887 6.28875 10.0362 6.28875C10.4435 6.28875 10.7735 5.94408 10.7735 5.5187V2.48008L17.3291 8.54161C17.2949 8.56677 17.262 8.59459 17.2313 8.62653L10.7734 15.3708V10.3103C10.7734 9.88489 10.4434 9.54022 10.0361 9.54022C9.62877 9.54022 9.29874 9.88489 9.29874 10.3103V11.2512H5.48912C5.08181 11.2512 4.75177 11.5958 4.75177 12.0212C4.75177 12.4466 5.08181 12.7913 5.48912 12.7913H9.29874V17.2299C9.29874 17.6553 9.62877 18 10.0361 18H33.2625C33.2868 18 33.311 17.9987 33.3352 17.9962C33.3465 17.9951 33.3574 17.9928 33.3686 17.9912C33.3813 17.9893 33.3939 17.9878 33.4065 17.9852ZM32.5252 15.3709L26.0673 8.62663C26.0631 8.62232 26.0587 8.61872 26.0545 8.61461L30.9095 4.3129C31.2199 4.03774 31.2581 3.55189 30.9946 3.22754C30.7313 2.9034 30.2661 2.86336 29.9553 3.13863L21.6596 10.489L11.9813 1.54021H32.5252V15.3709ZM18.2742 9.71579C18.3268 9.66086 18.3695 9.59966 18.4028 9.53457L21.1606 12.0845C21.3 12.2133 21.4746 12.278 21.6494 12.278C21.8191 12.278 21.9887 12.2171 22.1265 12.0951L24.937 9.6049C24.9625 9.64392 24.9913 9.68119 25.0245 9.71579L31.4823 16.4601H11.8163L18.2742 9.71579Z" fill="white"/>
<path id="Vector_2" d="M0.737346 8.77008H13.1903C13.5976 8.77008 13.9277 8.42541 13.9277 8.00003C13.9277 7.57465 13.5976 7.22998 13.1903 7.22998H0.737346C0.330036 7.22998 0 7.57465 0 8.00003C0 8.42541 0.330036 8.77008 0.737346 8.77008Z" fill="white"/>
<path id="Vector_3" d="M2.02769 4.52643H7.61923C8.02654 4.52643 8.35658 4.18176 8.35658 3.75638C8.35658 3.331 8.02654 2.98633 7.61923 2.98633H2.02769C1.62038 2.98633 1.29034 3.331 1.29034 3.75638C1.29034 4.18176 1.62038 4.52643 2.02769 4.52643Z" fill="white"/>
<path id="Vector_4" d="M6.14455 14.5029H0.737346C0.330036 14.5029 0 14.8476 0 15.273C0 15.6984 0.330036 16.043 0.737346 16.043H6.14455C6.55186 16.043 6.88189 15.6984 6.88189 15.273C6.88189 14.8476 6.55186 14.5029 6.14455 14.5029Z" fill="white"/>
</g>
</g>
</svg>
